<svg xmlns="http://www.w3.org/2000/svg" viewBox="0 0 800 500">
  <rect x="0" y="0" width="800" height="500" fill="#FAF8F4"/>
  <circle cx="680" cy="110" r="200" fill="#EDEBFA"/>

  <!-- skyline -->
  <rect x="30" y="250" width="70" height="130" rx="10" fill="#DCD9F2"/>
  <rect x="110" y="200" width="60" height="180" rx="10" fill="#C9C5E8"/>
  <rect x="180" y="270" width="85" height="110" rx="10" fill="#DCD9F2"/>

  <!-- road -->
  <rect x="0" y="380" width="800" height="120" fill="#2D2A6E"/>
  <path d="M0,440 H800" fill="none" stroke="#FAF8F4" stroke-width="6" stroke-dasharray="26 20" stroke-linecap="round"/>

  <!-- route line -->
  <path d="M430,352 C500,352 520,230 620,200" fill="none" stroke="#22B8A6" stroke-width="5" stroke-dasharray="3 14" stroke-linecap="round"/>

  <!-- destination pin -->
  <path d="M650,230 C620,195 600,168 600,145 C600,113 622,90 650,90 C678,90 700,113 700,145 C700,168 680,195 650,230 Z" fill="#FF6B5B"/>
  <circle cx="650" cy="145" r="22" fill="#FAF8F4"/>

  <!-- car -->
  <rect x="290" y="330" width="140" height="55" rx="18" fill="#FF6B5B"/>
  <rect x="320" y="300" width="80" height="45" rx="14" fill="#FF6B5B"/>
  <rect x="330" y="308" width="60" height="26" rx="8" fill="#FAF8F4" opacity="0.85"/>
  <circle cx="428" cy="352" r="6" fill="#FAF8F4"/>
  <circle cx="320" cy="386" r="17" fill="#1C1A2E"/>
  <circle cx="320" cy="386" r="6" fill="#FAF8F4"/>
  <circle cx="400" cy="386" r="17" fill="#1C1A2E"/>
  <circle cx="400" cy="386" r="6" fill="#FAF8F4"/>
</svg>
